<?xml version="1.0" encoding="UTF-8"?>
<svg id="Layer_1" xmlns="http://www.w3.org/2000/svg" version="1.1" viewBox="0 0 1200 800">
  <!-- Generator: Adobe Illustrator 29.0.0, SVG Export Plug-In . SVG Version: 2.1.0 Build 186)  -->
  <defs>
    <style>
      .st0 {
        fill: #fff;
        fill-rule: evenodd;
      }
    </style>
  </defs>
  <path class="st0" d="M246.6,292c-59.7,0-108.1,48.4-108.1,108s48.4,108,108.1,108,108.1-48.4,108.1-108c0-59.7-48.4-108-108.1-108"/>
  <path class="st0" d="M246.4,471.2c-5.7,0-10.3-4.6-10.3-10.3s4.6-10.3,10.3-10.3,10.3,4.6,10.3,10.3-4.6,10.3-10.3,10.3M274.8,400.6c0,11.3-7.9,21.1-18.9,24.5v19.2h-18.9v-19.2c-11-3.5-18.7-13.2-18.7-24.5v-60.8h18.7v60.8c0,4.8,4.4,8.6,9.6,8.6s9.4-3.8,9.4-8.6v-60.8h18.9v60.8"/>
  <path class="st0" d="M795.3,423.7c0,12.3-10.1,22.2-22.6,22.2s-22.6-10-22.6-22.2h15.1c0,4.1,3.3,7.5,7.5,7.5s7.6-3.4,7.6-7.5-.7-3.4-1.7-4.6l-23.2-27.2c-3.3-3.8-5.3-9-5.3-14.6,0-12.3,10.1-22.2,22.6-22.2s22.6,10,22.6,22.2h-14.9c0-4.1-3.5-7.4-7.6-7.4s-7.5,3.3-7.5,7.4.5,3.4,1.5,4.6l23.2,27.2c3.5,3.9,5.3,9,5.3,14.6M895.2,391.7c-4.1,0-7.5,3-7.5,6.7v6.8h14.9v-6.8c0-3.7-3.3-6.7-7.5-6.7ZM887.7,418.8v6.7c0,3.7,3.3,6.8,7.5,6.8s7.6-3.1,7.6-6.8h15.1c0,11.2-10.1,20.4-22.7,20.4s-22.6-9.2-22.6-20.4v-27.1c0-11.2,10.1-20.2,22.6-20.2s22.7,9.1,22.7,20.2v20.4h-30.2ZM939,425.5c0,3.7,3.5,6.7,7.6,6.7s7.5-3,7.5-6.7v-6.8h-7.5c-4.1,0-7.6,3.1-7.6,6.8h0ZM946.6,445.7c-12.4,0-22.7-9.1-22.7-20.2s10.3-20.2,22.7-20.2h7.5v-6.8c0-3.7-3.3-6.7-7.5-6.7s-7.6,3-7.6,6.7h-15.1c0-11.2,10.3-20.2,22.7-20.2s22.6,9.1,22.6,20.2v27.1c0,11.2-10.1,20.2-22.6,20.2ZM1026.5,377c12.5,0,22.6,9.1,22.6,20.2v47.3h-15.1v-47.3c0-3.7-3.3-6.8-7.5-6.8s-7.6,3.1-7.6,6.8v47.3h-15.1v-47.3c0-3.7-3.3-6.8-7.5-6.8s-7.6,3.1-7.6,6.8v47.3h-14.9v-47.3c0-11.2,10.1-20.2,22.6-20.2s11.1,1.9,15.1,5.1c4-3.1,9.3-5.1,15.1-5.1M852.9,382.9v-4.2h-15.5v66.9h15.5v-43.2c-.1-9.4,15.8-10.1,15.8-10.1v-13.6s-11.3,1-15.8,4.3M728.5,378.4h15v48.1c0,8.9-6.3,16.7-15,19.4v15.2h-15v-15.2c-8.7-2.7-14.8-10.4-14.8-19.4v-48.1h14.8v48.1c0,3.8,3.5,6.8,7.6,6.8s7.4-3,7.4-6.8v-48.1M729.1,474.2c0,4.5-3.7,8.2-8.2,8.2s-8.2-3.7-8.2-8.2,3.7-8.2,8.2-8.2,8.2,3.7,8.2,8.2M401,445.7c-12.3,0-22.4-10-22.4-22.3v-44.9c0-12.3,10-22.5,22.4-22.5s22.4,10.2,22.4,22.5h-15c0-4.1-3.3-7.6-7.4-7.6s-7.6,3.4-7.6,7.6v44.9c0,4.1,3.5,7.4,7.6,7.4s7.4-3.3,7.4-7.4h15c0,12.3-10,22.3-22.4,22.3M452.5,446c-12.5,0-22.5-9-22.5-20.3v-47.2h15v47.2c0,3.7,3.3,6.8,7.6,6.8s7.4-3.1,7.4-6.8v-47.2h15v47.2c0,11.3-10,20.3-22.4,20.3M531.6,378.5h-14.8v67h14.8v-67ZM496.2,382.7v-4.2h-14.8v67h14.8v-43.8c0-9.2,15-9.9,15-9.9v-13.4s-10.7,1-15,4.3M561.2,391.9c-4.1,0-7.4,3-7.4,6.7v27.1c0,3.7,3.3,6.9,7.4,6.9s7.4-3.1,7.4-6.9v-27.1c0-3.7-3.3-6.7-7.4-6.7h0ZM561.2,446c-12.3,0-22.4-9.1-22.4-20.4v-27.1c0-11.2,10-20.2,22.4-20.2s22.4,9.1,22.4,20.2v27.1c0,11.3-10,20.4-22.4,20.4ZM612.7,405.6c12.3,0,22.4,9.1,22.4,20.2s-10,20.4-22.4,20.4-22.5-9.1-22.5-20.4h15c0,3.9,3.3,6.8,7.6,6.8s7.4-3,7.4-6.8-3.3-6.7-7.6-6.7c-12.3,0-22.4-9.1-22.4-20.2s10-20.4,22.5-20.4,22.4,9.1,22.4,20.4h-15c0-3.9-3.3-6.8-7.4-6.8s-7.6,3-7.6,6.8,3.3,6.7,7.6,6.7M655.6,378.4h-14.8v67h14.8v-67ZM685.1,430.5h7.4v15h-7.4c-12.3,0-22.4-10.1-22.4-22.4v-67.4h14.8v22.8h15v14.6h-15v30c0,4.1,3.5,7.4,7.6,7.4M823.5,430.5h7.4v15h-7.4c-12.3,0-22.4-10.1-22.4-22.4v-67.4h14.8v22.8h15v14.6h-15v30c0,4.1,3.5,7.4,7.6,7.4M1055.9,382.8h.5c.6,0,1.1-.2,1.1-.8s-.3-.8-1-.8-.5,0-.6,0v1.5ZM1055.9,385.7h-1.1v-5.1c.4,0,1.1-.2,1.8-.2s1.3.2,1.7.4c.3.2.5.6.5,1.1s-.4,1-1,1.2h0c.5.3.7.6.9,1.3.1.8.2,1.1.4,1.3h-1.2c-.1-.2-.2-.7-.4-1.3,0-.6-.4-.8-1-.8h-.5v2.1ZM1052.9,383c0,2.3,1.6,4.1,3.7,4.1s3.6-1.8,3.6-4.1-1.5-4.1-3.7-4.1-3.7,1.9-3.7,4.1ZM1061.5,383c0,2.9-2.1,5.2-4.9,5.2s-4.9-2.3-4.9-5.2,2.2-5.1,4.9-5.1,4.9,2.3,4.9,5.1h0Z"/>
</svg>